<svg width="819" height="581" viewBox="0 0 819 581" fill="none" xmlns="http://www.w3.org/2000/svg">
<g id="honeycomb">
<path id="honeycomb-2" d="M693.46 363.993L674.378 331.102L694.844 365.97L687.93 377.408L693.448 368.028L694.633 366.014L693.46 363.993ZM393.504 366.944L436.649 444.545L390.619 365.971L422.133 310.569L393.488 363.085L392.434 365.018L393.504 366.944ZM401.566 364.982L471.357 237.033L611.678 238.968L685.367 365.986L612.703 489.516L471.344 490.484L401.566 364.982Z" stroke="white" stroke-opacity="0.75" stroke-width="8"/>
<path id="honeycomb-3" d="M442.967 513.339L435.854 524.655L441.535 515.372L442.755 513.379L441.617 511.338L423.113 478.12L442.967 513.339ZM366.683 378.017L367.509 379.483L365.912 379.433L262.364 376.196L366.683 378.017ZM217.322 375.41L218.249 375.426L217.399 376.868L142.804 503.335L141.512 503.43L217.322 375.41Z" stroke="white" stroke-opacity="0.75" stroke-width="8"/>
<path id="honeycomb-4" d="M626.277 205.486L473.727 203.265L435.275 135.728L395.5 68.5L435.419 2.833" stroke="white" stroke-opacity="0.75" stroke-width="8"/>
<g id="honeycomb-1">
<path id="honeycomb-1_2" d="M446.46 211.993L427.378 179.102L447.844 213.97L440.93 225.408L446.448 216.028L447.633 214.014L446.46 211.993ZM146.504 214.944L189.649 292.545L143.619 213.971L175.133 158.569L146.488 211.085L145.434 213.018L146.504 214.944ZM154.566 212.982L224.357 85.0329L364.678 86.9684L438.367 213.986L365.703 337.516L224.344 338.484L154.566 212.982Z" stroke="white" stroke-opacity="0.75" stroke-width="8"/>
<path id="Rectangle 1" d="M170.518 216.243L174.481 214L233.559 318.42L229.595 320.662L170.518 216.243Z" fill="white" fill-opacity="0.75"/>
<path id="Rectangle 2" d="M416.078 214L420.041 216.243L360.964 320.662L357 318.42L416.078 214Z" fill="white" fill-opacity="0.75"/>
</g>
</g>
</svg>
